<?xml version="1.0" encoding="UTF-8"?>
<svg version="1.1" xmlns="http://www.w3.org/2000/svg" width="1024" height="1024">
<path d="M0 0 C8.22383577 6.58208101 9.90022801 12.72515476 11.06410313 23.01085186 C12.18664212 33.32992506 12.86923318 43.68642815 13.59765625 54.0390625 C13.76622466 56.39091218 13.9351925 58.74273325 14.10452271 61.0945282 C14.46860257 66.16003905 14.83046043 71.22570145 15.19046021 76.29150391 C16.11954241 89.36501687 17.05861715 102.43781289 17.99911475 115.51050901 C18.15714588 117.70776875 18.31500722 119.90504064 18.47284889 122.102314 C20.09404928 144.66072212 21.76820388 167.21485378 23.47334862 189.76706505 C23.85773523 194.85146419 24.24090665 199.93595444 24.62385559 205.02046204 C24.87689666 208.37912183 25.12997443 211.73777885 25.38305664 215.09643555 C25.44532775 215.9229802 25.50759885 216.74952484 25.57175696 217.6011163 C26.31492348 227.46313515 27.06280845 237.32477327 27.81771207 247.18590075 C28.29452741 253.41952253 28.76588703 259.65354291 29.23330283 265.88787645 C29.50397186 269.49514918 29.77710915 273.1021887 30.05716324 276.70874596 C31.99071827 301.65013146 31.99071827 301.65013146 32.20092773 313.76757812 C32.22659097 314.53159187 32.2522542 315.29560562 32.27869511 316.0827713 C32.29921664 323.89110829 29.04939916 331.11169407 23.75498962 336.83735657 C16.11384011 343.23438078 7.28849997 345.39850381 -2.40234375 346.1328125 C-3.5542067 346.2404744 -4.70606964 346.34813629 -5.89283752 346.45906067 C-8.36659355 346.68913456 -10.84127756 346.90940819 -13.31671143 347.1206665 C-17.25090244 347.46323222 -21.18005635 347.84531744 -25.10888672 348.24365234 C-32.584307 348.99926157 -40.06229715 349.72543521 -47.5413208 350.44439697 C-50.36063451 350.71620696 -53.17966315 350.99091605 -55.99870205 351.2655592 C-59.39088301 351.59556289 -62.78334209 351.9226611 -66.17578125 352.25 C-67.42660995 352.37183151 -68.67743866 352.49366302 -69.96617126 352.6191864 C-71.6969265 352.78484856 -71.6969265 352.78484856 -73.46264648 352.95385742 C-74.47374985 353.05139816 -75.48485321 353.1489389 -76.52659607 353.24943542 C-78.73861129 353.42251846 -80.96091102 353.45703125 -83.1796875 353.45703125 C-82.7465625 354.25625 -82.3134375 355.05546875 -81.8671875 355.87890625 C-77.29094099 364.9042813 -75.2210302 372.73009023 -78.1796875 382.64453125 C-82.81083909 392.85411544 -92.10423399 398.4486634 -101.20507812 404.19970703 C-104.33504499 406.19270028 -107.41121672 408.26444548 -110.4921875 410.33203125 C-111.73800293 411.16317775 -112.98410238 411.99389866 -114.23046875 412.82421875 C-115.18687256 413.46182129 -115.18687256 413.46182129 -116.16259766 414.11230469 C-183.62890625 459.08984375 -183.62890625 459.08984375 -186.57226562 461.05200195 C-188.62444885 462.42017895 -190.67653005 463.78850899 -192.72851562 465.15698242 C-197.84141846 468.56650884 -202.95575808 471.97382184 -208.07421875 475.375 C-210.02614224 476.67302586 -211.97796509 477.97120307 -213.9296875 479.26953125 C-214.89487305 479.91116211 -215.86005859 480.55279297 -216.85449219 481.21386719 C-222.50666317 484.98013225 -228.13283682 488.78190896 -233.73828125 492.6171875 C-234.37458466 493.0518483 -235.01088806 493.48650909 -235.66647339 493.93434143 C-238.78331455 496.06347638 -241.89695643 498.19698358 -245.00488281 500.33911133 C-246.13982782 501.11561078 -247.2749121 501.89190671 -248.41015625 502.66796875 C-249.40426514 503.35165527 -250.39837402 504.0353418 -251.42260742 504.73974609 C-258.00589702 508.84023835 -265.21895052 510.30988001 -272.90625 508.98828125 C-281.64454814 506.55950956 -288.05081791 501.95009009 -293.1796875 494.45703125 C-296.26386732 488.01499013 -297.06968398 481.37669051 -295.1796875 474.45703125 C-292.82986687 468.70252404 -289.61925605 464.18380181 -285.4921875 459.58203125 C-284.96471924 458.98052246 -284.43725098 458.37901367 -283.89379883 457.75927734 C-282.33180172 455.98325944 -280.75817322 454.21839655 -279.1796875 452.45703125 C-278.34179688 451.51859375 -277.50390625 450.58015625 -276.640625 449.61328125 C-275.16153833 447.96646311 -273.67865794 446.32304176 -272.19140625 444.68359375 C-270.33234081 442.62598734 -268.50040392 440.54856362 -266.6796875 438.45703125 C-263.28715657 434.56190314 -259.82774549 430.72920362 -256.3671875 426.89453125 C-253.88464482 424.12826941 -251.44028527 421.33083427 -249 418.52734375 C-246.8734643 416.10875164 -244.71499644 413.72049162 -242.5546875 411.33203125 C-241.801875 410.49027344 -241.0490625 409.64851563 -240.2734375 408.78125 C-239.02154443 407.39155527 -237.75528588 406.0143032 -236.4609375 404.6640625 C-233.78950713 401.830036 -233.78950713 401.830036 -233.24609375 398.11328125 C-234.49751379 394.55275561 -236.49154394 392.82673996 -239.2421875 390.26953125 C-240.92055999 388.69944086 -242.57506719 387.10242231 -244.1796875 385.45703125 C-244.1796875 384.79703125 -244.1796875 384.13703125 -244.1796875 383.45703125 C-244.75203125 383.20953125 -245.324375 382.96203125 -245.9140625 382.70703125 C-248.52979361 381.26386926 -250.32742206 379.57486903 -252.4296875 377.45703125 C-253.13609375 376.75578125 -253.8425 376.05453125 -254.5703125 375.33203125 C-256.1796875 373.45703125 -256.1796875 373.45703125 -256.1796875 371.45703125 C-264.0836907 367.13822125 -272.86943731 368.5611482 -281.50366211 369.48925781 C-282.708573 369.61108932 -283.91348389 369.73292084 -285.15490723 369.85844421 C-288.44451521 370.19284615 -291.7330545 370.53557408 -295.02141261 370.88192081 C-298.50545311 371.24668069 -301.99063961 371.60014444 -305.47572327 371.95477295 C-312.10452053 372.63091156 -318.7323272 373.31627998 -325.35979038 374.00536036 C-337.09905777 375.22555662 -348.84011356 376.42843964 -360.58114779 377.63149786 C-364.11554628 377.99366091 -367.64989425 378.35630163 -371.18412399 378.72010803 C-389.5711179 380.6124352 -407.96014083 382.41022496 -426.38110352 383.94042969 C-430.68025447 384.30361424 -434.91828025 384.78751314 -439.1796875 385.45703125 C-448.51481686 386.35238171 -456.60690001 384.03365443 -464.4921875 378.95703125 C-470.38353959 373.90217391 -473.94224995 367.07389667 -474.75213623 359.3347168 C-475.0911162 354.07719691 -475.05709039 348.81687293 -475.046875 343.55078125 C-475.06441146 341.37941682 -475.0842073 339.20806979 -475.10592651 337.03674316 C-475.15473411 331.18244205 -475.16980654 325.32847924 -475.17290628 319.47402048 C-475.17657763 313.54512976 -475.19364835 307.61635197 -475.21496582 301.6875 C-475.30889189 274.86491799 -475.32244135 248.04268231 -475.30826163 221.21996307 C-475.30388641 212.01900684 -475.30703232 202.8180642 -475.311885 193.61710882 C-475.31642685 184.64018509 -475.31706341 175.66326722 -475.31444633 166.68634272 C-475.31289795 161.36756728 -475.31265128 156.04880107 -475.31598282 150.73002625 C-475.31887954 145.76525448 -475.31685291 140.80050816 -475.31108856 135.83573914 C-475.3097735 134.02457725 -475.31013362 132.2134132 -475.31235123 130.4022522 C-475.34641178 99.75446841 -475.34641178 99.75446841 -466.49609375 89.5078125 C-457.50700965 81.83326113 -442.97730472 80.64618381 -431.75390625 78.46875 C-430.40488051 78.20231397 -429.0559707 77.93529037 -427.70716858 77.66772461 C-424.87917458 77.10772495 -422.05055333 76.55107675 -419.22131348 75.99740601 C-412.64405229 74.71018604 -406.06984691 73.40751522 -399.49569321 72.10453224 C-398.0554012 71.81912415 -396.61506571 71.53393545 -395.17468643 71.24896812 C-382.43842254 68.7284945 -369.72964595 66.09385756 -357.0534668 63.28588867 C-355.91433838 63.03685791 -354.77520996 62.78782715 -353.6015625 62.53125 C-352.65893555 62.32072998 -351.71630859 62.11020996 -350.74511719 61.89331055 C-348.13285752 61.4490673 -345.82179802 61.23497433 -343.1796875 61.45703125 C-340.81691039 63.81980836 -340.78047464 64.76174599 -340.328125 68 C-340.19921875 68.90943359 -340.0703125 69.81886719 -339.9375 70.75585938 C-339.81117188 71.70912109 -339.68484375 72.66238281 -339.5546875 73.64453125 C-339.35359375 75.04541992 -339.35359375 75.04541992 -339.1484375 76.47460938 C-338.45275754 81.51828909 -338.02480064 86.36688593 -338.1796875 91.45703125 C-346.30171172 94.434089 -354.61730651 96.15727727 -363.0703125 97.890625 C-364.62148675 98.2126357 -366.17257149 98.53507786 -367.72357178 98.85792542 C-370.97064252 99.53267891 -374.21841138 100.20391951 -377.46679688 100.87231445 C-381.56566913 101.71574361 -385.66325304 102.56522907 -389.76038361 103.4170742 C-421.62423474 110.03991451 -421.62423474 110.03991451 -434.32086182 112.24424744 C-437.86302275 112.88309208 -440.14162417 113.4316557 -443.1796875 115.45703125 C-443.47372157 118.60126598 -443.57045829 121.54839241 -443.54045105 124.69497681 C-443.54429596 126.14924295 -443.54429596 126.14924295 -443.54821855 127.6328882 C-443.55318478 130.90207178 -443.53661669 134.17079993 -443.52026367 137.43994141 C-443.51941801 139.77518198 -443.51989134 142.11042335 -443.52159119 144.44566345 C-443.52245495 150.80284955 -443.50476751 157.15986721 -443.48386931 163.51701403 C-443.46705922 169.48226211 -443.46400308 175.44750341 -443.4609137 181.41277198 C-443.45434337 193.23029135 -443.43436649 205.0477487 -443.40600586 216.86523438 C-443.3784803 228.34667652 -443.35723938 239.82810184 -443.34448242 251.30957031 C-443.34369425 252.01696282 -443.34290608 252.72435532 -443.34209403 253.45318396 C-443.33817899 257.00186748 -443.33438785 260.55055111 -443.33065832 264.09923482 C-443.29954433 293.55187364 -443.24647017 323.00445178 -443.1796875 352.45703125 C-433.01170323 351.91237535 -422.88797523 351.22932868 -412.75708008 350.18188477 C-411.53172546 350.05815491 -410.30637085 349.93442505 -409.04388428 349.8069458 C-406.41722362 349.54120122 -403.79073021 349.27420925 -401.16443825 349.00488472 C-396.98618197 348.57640823 -392.80741639 348.1530426 -388.62858582 347.73020935 C-382.00041812 347.05893946 -375.37260302 346.38425671 -368.74492997 345.70812219 C-356.91822612 344.50171405 -345.09091159 343.30131392 -333.2634899 342.10196632 C-329.80103409 341.7507474 -326.33864663 341.39887939 -322.87641335 341.0454731 C-310.23095394 339.75473644 -297.58529281 338.46777167 -284.9284668 337.29272461 C-284.07493779 337.21196717 -283.22140879 337.13120974 -282.34201527 337.0480051 C-266.90937042 335.6434401 -253.8658964 334.82937616 -241.06640625 344.796875 C-238.66116023 346.9132923 -236.44228348 349.18825495 -234.1796875 351.45703125 C-232.66393153 352.95222597 -231.14436078 354.44348429 -229.62487793 355.93489075 C-227.2581385 358.26106605 -224.89971848 360.59560652 -222.54150391 362.93041992 C-221.30297533 364.15384449 -220.06177 365.37456534 -218.81787109 366.5925293 C-217.00411049 368.36957313 -215.20050727 370.15642334 -213.3984375 371.9453125 C-212.84933716 372.47892899 -212.30023682 373.01254547 -211.73449707 373.56233215 C-205.08446941 380.20948438 -200.35823187 387.47279553 -200.11328125 397.0546875 C-200.74796644 410.72926843 -208.64462717 418.59547003 -217.69238281 427.90917969 C-219.50003386 429.79041863 -221.22601744 431.73141386 -222.9296875 433.70703125 C-225.37031442 436.53553287 -227.85609729 439.31580354 -230.3671875 442.08203125 C-234.15614149 446.28183567 -237.87006926 450.54084327 -241.5546875 454.83203125 C-242.06668701 455.42709473 -242.57868652 456.0221582 -243.10620117 456.63525391 C-245.13161815 459.00232772 -247.09255208 461.33519938 -248.90625 463.87109375 C-249.32648438 464.39445312 -249.74671875 464.9178125 -250.1796875 465.45703125 C-250.8396875 465.45703125 -251.4996875 465.45703125 -252.1796875 465.45703125 C-252.8396875 466.77703125 -253.4996875 468.09703125 -254.1796875 469.45703125 C-250.13147973 467.57269925 -246.39763277 465.19419994 -242.6171875 462.83203125 C-241.90119385 462.38472656 -241.1852002 461.93742187 -240.44750977 461.4765625 C-235.47923271 458.34328412 -230.71161965 455.0169143 -226 451.5078125 C-222.72310025 449.12502529 -219.37139799 446.87865177 -215.9921875 444.64453125 C-210.8343473 441.23229107 -205.70750313 437.78178452 -200.6171875 434.26953125 C-188.08761381 425.62952151 -175.55056025 416.99526863 -162.8671875 408.58203125 C-155.0997417 403.42940186 -147.38948123 398.19265708 -139.6940918 392.93310547 C-134.61643407 389.46323784 -129.5289271 386.01614155 -124.3828125 382.6484375 C-123.50012695 382.06425049 -122.61744141 381.48006348 -121.70800781 380.87817383 C-120.06424588 379.79169735 -118.41287034 378.71662313 -116.75292969 377.6550293 C-112.63614585 374.97467214 -112.63614585 374.97467214 -110.03125 370.9453125 C-110.21897903 367.79838112 -111.13874279 365.70686341 -112.5546875 362.89453125 C-116.07150275 355.81178323 -117.31523714 349.92606936 -115.1796875 342.08203125 C-112.68515269 335.23084409 -107.66281745 329.48667142 -101.2421875 326.01953125 C-91.28768259 321.96065371 -80.45001251 321.55215848 -69.86328125 320.546875 C-68.07921925 320.37328187 -66.29520813 320.19916508 -64.51124573 320.02455139 C-59.83445123 319.56805121 -55.15706089 319.11798339 -50.47949219 318.66949463 C-43.88993089 318.03647745 -37.30122701 317.39458615 -30.7124176 316.75379944 C-27.21013669 316.41321794 -23.70764022 316.07500299 -20.2049408 315.73875427 C-18.59683164 315.58357391 -16.98872309 315.42838727 -15.38061523 315.27319336 C-14.66610703 315.20512482 -13.95159882 315.13705627 -13.21543884 315.06692505 C-8.52406208 314.61267302 -3.85385662 314.05880601 0.8203125 313.45703125 C0.75633018 312.57460251 0.75633018 312.57460251 0.6910553 311.67434692 C-2.47197233 268.01067299 -5.51387128 224.33873247 -8.53145838 180.66481018 C-9.36188229 168.64631549 -10.19256858 156.62783893 -11.0234375 144.609375 C-11.07066365 143.92622207 -11.11788981 143.24306914 -11.16654706 142.53921461 C-12.77411345 119.28561284 -14.38892534 96.03253669 -16.02505493 72.78092575 C-16.17766918 70.61073201 -16.32996929 68.44051643 -16.48217773 66.27029419 C-16.75531992 62.37673804 -17.02985091 58.48328069 -17.3046875 54.58984375 C-17.38029907 53.5117897 -17.45591064 52.43373566 -17.53381348 51.32301331 C-17.74338448 48.36723079 -17.95963221 45.41205059 -18.1796875 42.45703125 C-18.25928711 41.36485291 -18.33888672 40.27267456 -18.42089844 39.1473999 C-18.54513184 37.53312103 -18.54513184 37.53312103 -18.671875 35.88623047 C-18.74519043 34.91676483 -18.81850586 33.94729919 -18.89404297 32.94845581 C-19.10755084 30.3299246 -19.10755084 30.3299246 -20.1796875 27.45703125 C-28.08036261 28.0184228 -35.64612392 29.48705638 -43.37109375 31.1953125 C-45.32317824 31.61944796 -47.27526343 32.04358023 -49.22737598 32.46758652 C-51.30106335 32.919049 -53.37414883 33.37318468 -55.44708252 33.82809448 C-59.81936998 34.787359 -64.1933969 35.73850739 -68.56787109 36.68774414 C-69.30570705 36.84785068 -70.04354301 37.00795721 -70.80373764 37.17291546 C-72.30094803 37.49775634 -73.79816714 37.82255706 -75.2953949 38.14731789 C-77.55896912 38.63849545 -79.8224019 39.13032068 -82.08581543 39.62223816 C-95.81336575 42.60398572 -109.55604358 45.51165168 -123.3046875 48.39453125 C-125.61768924 48.88014422 -127.93067739 49.36582197 -130.24365234 49.8515625 C-133.8033047 50.5990069 -137.3629806 51.34633822 -140.92272949 52.09332275 C-153.99608262 54.83693233 -167.06732722 57.59050518 -180.13746071 60.34940815 C-183.86370122 61.1359335 -187.59004521 61.92196069 -191.31665039 62.70675659 C-207.75280761 66.16827458 -224.18098456 69.66245815 -240.59251595 73.23909569 C-243.05945675 73.77633384 -245.5266716 74.31229266 -247.9940033 74.84773254 C-248.79636571 75.02186393 -249.59872812 75.19599531 -250.42540455 75.3754034 C-252.0281536 75.72319473 -253.63091572 76.07092586 -255.23369122 76.41859531 C-259.89908042 77.43150695 -264.56236361 78.45350531 -269.22429371 79.48221302 C-272.09892269 80.11446532 -274.9752676 80.73861348 -277.85212898 81.3606205 C-279.82069027 81.78896388 -281.78702669 82.22749239 -283.75328064 82.66630554 C-284.92798416 82.91886612 -286.10268768 83.1714267 -287.31298828 83.43164062 C-288.33127716 83.65509155 -289.34956604 83.87854248 -290.39871216 84.10876465 C-293.2817907 84.46981782 -295.38649254 84.19559667 -298.1796875 83.45703125 C-301.3563327 74.78131956 -303.24857073 63.72068591 -302.1796875 54.45703125 C-299.36086834 51.77248485 -296.78454732 50.89824064 -293.01907349 50.12507629 C-291.97465088 49.90533142 -290.93022827 49.68558655 -289.85415649 49.45918274 C-288.7126413 49.23006699 -287.5711261 49.00095123 -286.39501953 48.76489258 C-285.18751038 48.51395844 -283.98000122 48.26302429 -282.73590088 48.00448608 C-279.41696178 47.31687727 -276.09636867 46.63857841 -272.77472925 45.96421647 C-269.25953754 45.24819655 -265.74683984 44.52014181 -262.2338562 43.79338074 C-255.53774393 42.40996274 -248.83952524 41.03704054 -242.14046466 39.66797894 C-233.93693146 37.99098522 -225.73601338 36.30135072 -217.53515625 34.61132812 C-214.62450261 34.01166565 -211.71382452 33.41212196 -208.8031311 32.81265259 C-208.08937211 32.66564616 -207.37561311 32.51863973 -206.64022505 32.36717856 C-201.63790204 31.33712837 -196.63514083 30.30922476 -191.63217163 29.28231812 C-172.34207568 25.32227578 -153.06575373 21.30107413 -133.80059814 17.2215271 C-128.51539698 16.10564362 -123.22692165 15.00583384 -117.9375 13.91015625 C-117.04942154 13.72598648 -116.16134308 13.54181671 -115.24635315 13.35206604 C-111.63340824 12.60306513 -108.02031764 11.85478601 -104.4067688 11.10870361 C-91.98452382 8.54221463 -79.58338662 5.897004 -67.19921875 3.15234375 C-63.40811125 2.31818237 -59.61677114 1.4850856 -55.82537842 0.65222168 C-53.3822431 0.1118406 -50.94034441 -0.43416678 -48.49981689 -0.98620605 C-12.7984311 -9.0598213 -12.7984311 -9.0598213 0 0 Z " fill="#983DDB" transform="translate(731.1796875,276.54296875)"/>
<path d="M0 0 C5.215711 0.33197509 7.93490335 3.33797592 11.4296875 6.86328125 C12.02427765 7.45167282 12.6188678 8.04006439 13.23147583 8.64628601 C14.48191097 9.88963219 15.72725106 11.13812082 16.96777344 12.39135742 C18.87373412 14.31122488 20.80252493 16.2058362 22.734375 18.09960938 C23.94676476 19.31104834 25.15775253 20.52389237 26.3671875 21.73828125 C26.94725555 22.30509109 27.52732361 22.87190094 28.12496948 23.45588684 C29.71435547 25.08325195 29.71435547 25.08325195 32 28 C31.64285278 30.18229675 31.64285278 30.18229675 31 32 C26.58165052 27.60691362 22.16715378 23.20998376 17.75537109 18.81030273 C16.25268527 17.31265948 14.74910507 15.81591309 13.24462891 14.32006836 C11.08783449 12.17534291 8.93423049 10.0274594 6.78125 7.87890625 C6.10316284 7.20598038 5.42507568 6.5330545 4.72644043 5.83973694 C3.79547546 4.90888527 3.79547546 4.90888527 2.84570312 3.95922852 C2.29499146 3.41073746 1.74427979 2.8622464 1.17687988 2.2971344 C0 1 0 1 0 0 Z " fill="#8839C0" transform="translate(492,627)"/>
<path d="M0 0 C0.33 0 0.66 0 1 0 C2.68069379 5.06834221 3.18837525 9.40423268 3 14.75 C2.82707508 23.94154924 3.50069294 33.01480279 4.2890625 42.16894531 C4.92353768 49.79850939 5.11306952 57.34503651 5 65 C4.67 65 4.34 65 4 65 C3.58947873 60.41436539 3.18062905 55.82858558 2.77319336 51.24267578 C2.63495814 49.68925145 2.49630055 48.13586463 2.35717773 46.58251953 C-0.18950281 18.13692524 -0.18950281 18.13692524 -0.0625 7.625 C-0.05798828 6.87734375 -0.05347656 6.1296875 -0.04882812 5.359375 C-0.03737623 3.57287923 -0.01946469 1.78642644 0 0 Z " fill="#5C2E8B" transform="translate(725,476)"/>
<path d="M0 0 C3.17580286 1.40477504 5.3309531 3.07411216 7.78515625 5.51953125 C8.48060547 6.21240234 9.17605469 6.90527344 9.89257812 7.61914062 C10.60865234 8.34294922 11.32472656 9.06675781 12.0625 9.8125 C12.78244141 10.52470703 13.50238281 11.23691406 14.24414062 11.97070312 C17.71751611 15.45697879 20.62432371 18.65251239 23 23 C23.886875 23.825 24.77375 24.65 25.6875 25.5 C28 28 28 28 28.3125 30.8125 C28.209375 31.534375 28.10625 32.25625 28 33 C27.78601563 32.45601562 27.57203125 31.91203125 27.3515625 31.3515625 C25.52821508 28.17914878 23.0046765 25.87119039 20.375 23.375 C18.52792799 21.62028159 16.75602961 19.84999775 15 18 C15 17.34 15 16.68 15 16 C14.42378906 15.74734375 13.84757812 15.4946875 13.25390625 15.234375 C7.21614306 11.92773173 2.53598069 6.33995172 0 0 Z " fill="#8337BC" transform="translate(472,644)"/>
<path d="M0 0 C0 0.33 0 0.66 0 1 C-4.92537449 1.55281288 -9.85091679 2.10409887 -14.77661133 2.65405273 C-16.44755518 2.84082137 -18.1184548 3.0279862 -19.78930664 3.21557617 C-45.98667588 6.1560172 -45.98667588 6.1560172 -53.1875 6.0625 C-54.10917969 6.05347656 -55.03085937 6.04445313 -55.98046875 6.03515625 C-56.64691406 6.02355469 -57.31335938 6.01195312 -58 6 C-58 5.67 -58 5.34 -58 5 C-56.35 5 -54.7 5 -53 5 C-53 4.34 -53 3.68 -53 3 C-51.97253662 3.02610352 -51.97253662 3.02610352 -50.92431641 3.05273438 C-42.33148172 3.17229676 -33.90487555 2.4196465 -25.375 1.5 C-16.8986458 0.59094762 -8.53465865 -0.27327102 0 0 Z " fill="#612D91" transform="translate(420,648)"/>
<path d="M0 0 C0 0.33 0 0.66 0 1 C-10.395 1.99 -10.395 1.99 -21 3 C-20.01 4.8975 -19.02 6.795 -18 8.75 C-14.25318442 16.89024473 -13.44005699 24.14118927 -16.375 32.6875 C-18 36 -18 36 -20 37 C-19.7834375 36.29875 -19.566875 35.5975 -19.34375 34.875 C-16.35592834 24.69427436 -16.08311135 17.66933286 -21 8 C-21.56074219 7.30390625 -22.12148438 6.6078125 -22.69921875 5.890625 C-23.12847656 5.26671875 -23.55773437 4.6428125 -24 4 C-23.67 3.01 -23.34 2.02 -23 1 C-15.30881404 0.24833087 -7.72772107 -0.13690844 0 0 Z " fill="#692F9A" transform="translate(669,627)"/>
<path d="M0 0 C0 0.33 0 0.66 0 1 C-3.99902767 1.5079846 -7.99935384 2.00493676 -12 2.5 C-13.68802734 2.71462891 -13.68802734 2.71462891 -15.41015625 2.93359375 C-21.323297 3.65976893 -27.04263601 4.17521659 -33 4 C-33 4.66 -33 5.32 -33 6 C-37.29 5.67 -41.58 5.34 -46 5 C-46 4.67 -46 4.34 -46 4 C-40.89611411 3.42400808 -35.79155086 2.8545939 -30.6862793 2.29101562 C-28.95300966 2.09877059 -27.21993125 1.90479269 -25.48706055 1.70898438 C-22.98275396 1.42632149 -20.4778044 1.15009247 -17.97265625 0.875 C-17.20977798 0.78750488 -16.44689972 0.70000977 -15.66090393 0.60986328 C-10.41278277 0.0419777 -5.27908787 -0.07328886 0 0 Z " fill="#612C92" transform="translate(405,619)"/>
<path d="M0 0 C0.33 0 0.66 0 1 0 C1.60775408 4.86203267 1.1653883 7.30567236 -1.75 11.3125 C-3.91062349 14.08966504 -5.76008286 15.61247027 -9 17 C-8.60167969 16.35933594 -8.20335937 15.71867188 -7.79296875 15.05859375 C-4.78283052 10.14423182 -2.10055882 5.36809475 0 0 Z " fill="#843AB9" transform="translate(760,598)"/>
<path d="M0 0 C0.66 0.33 1.32 0.66 2 1 C-2.95 4.3 -7.9 7.6 -13 11 C-13 8 -13 8 -11 5 C-10.2575 4.855625 -9.515 4.71125 -8.75 4.5625 C-5.20031067 3.83642718 -2.91215249 2.09945877 0 0 Z " fill="#632895" transform="translate(483,743)"/>
<path d="M0 0 C0.33 0 0.66 0 1 0 C2.95635423 5.5238237 3.17320538 9.23174022 2 15 C1.34 15.66 0.68 16.32 0 17 C0 11.39 0 5.78 0 0 Z " fill="#7235A8" transform="translate(725,476)"/>
<path d="M0 0 C1.32 0.33 2.64 0.66 4 1 C0.04 3.64 -3.92 6.28 -8 9 C-8.66 8.67 -9.32 8.34 -10 8 C-8 5 -8 5 -6.125 4.5625 C-3.78092758 4.1423311 -3.78092758 4.1423311 -2 1.875 C-1.34 1.25625 -0.68 0.6375 0 0 Z " fill="#7A34B0" transform="translate(624,681)"/>
<path d="M0 0 C0.66 0.33 1.32 0.66 2 1 C-3.445 4.96 -3.445 4.96 -9 9 C-9.66 8.67 -10.32 8.34 -11 8 C-7.6378363 4.34117479 -4.63949148 1.85579659 0 0 Z " fill="#7832AE" transform="translate(543,736)"/>
<path d="M0 0 C0.66 0.33 1.32 0.66 2 1 C0.35 2.98 -1.3 4.96 -3 7 C-4.32 6.34 -5.64 5.68 -7 5 C-4.69 3.35 -2.38 1.7 0 0 Z " fill="#7E34B7" transform="translate(536,707)"/>
<path d="M0 0 C0.66 0.33 1.32 0.66 2 1 C-1.3 3.31 -4.6 5.62 -8 8 C-8.66 7.67 -9.32 7.34 -10 7 C-7.5447806 2.81168455 -4.50419967 1.55599625 0 0 Z " fill="#6D2EA2" transform="translate(599,699)"/>
<path d="M0 0 C0.66 0.33 1.32 0.66 2 1 C-2.75 5.875 -2.75 5.875 -5 7 C-5.66 6.34 -6.32 5.68 -7 5 C-4.69 3.35 -2.38 1.7 0 0 Z " fill="#8034B9" transform="translate(558,692)"/>
<path d="M0 0 C2.4375 0.375 2.4375 0.375 5 1 C5.33 1.66 5.66 2.32 6 3 C2.37 3 -1.26 3 -5 3 C-5 2.67 -5 2.34 -5 2 C-3.35 2 -1.7 2 0 2 C0 1.34 0 0.68 0 0 Z " fill="#7B34B2" transform="translate(367,651)"/>
<path d="M0 0 C0.33 0.66 0.66 1.32 1 2 C-3.43076923 5.07692308 -3.43076923 5.07692308 -6.3125 4.6875 C-6.869375 4.460625 -7.42625 4.23375 -8 4 C-5.37801226 1.84622436 -3.35595828 0.59927826 0 0 Z " fill="#8939C6" transform="translate(593,670)"/>
<path d="M0 0 C0.33 0.99 0.66 1.98 1 3 C-1.64 4.98 -4.28 6.96 -7 9 C-5.04783565 5.09567131 -3.12613393 2.96160056 0 0 Z " fill="#6B2C9E" transform="translate(469,710)"/>
<path d="M0 0 C-0.99 0.495 -0.99 0.495 -2 1 C-2.33 1.99 -2.66 2.98 -3 4 C-6 3 -6 3 -9 1 C-5.8035914 -0.06546953 -3.34252724 -0.07427838 0 0 Z " fill="#7933B0" transform="translate(635,287)"/>
<path d="M0 0 C3 1 3 1 3 1 Z " fill="#9F4DD5" transform="translate(580,331)"/>
<path d="" fill="#9B4FD2" transform="translate(0,0)"/>
<path d="M0 0 C2 1 2 1 2 1 Z " fill="#9E4DD6" transform="translate(326,659)"/>
<path d="" fill="#9D4DCE" transform="translate(0,0)"/>
<path d="" fill="#A24CD9" transform="translate(0,0)"/>
<path d="" fill="#A34DDA" transform="translate(0,0)"/>
<path d="" fill="#A14DD5" transform="translate(0,0)"/>
<path d="M0 0 C2 1 2 1 2 1 Z " fill="#A04DD6" transform="translate(617,288)"/>
<path d="" fill="#636463" transform="translate(0,0)"/>
<path d="" fill="#9C4ECE" transform="translate(0,0)"/>
<path d="" fill="#A451DC" transform="translate(0,0)"/>
<path d="" fill="#A24CDB" transform="translate(0,0)"/>
<path d="" fill="#A14ED9" transform="translate(0,0)"/>
<path d="" fill="#9C49D3" transform="translate(0,0)"/>
<path d="" fill="#A248D9" transform="translate(0,0)"/>
<path d="" fill="#A04CDA" transform="translate(0,0)"/>
<path d="" fill="#A04CDB" transform="translate(0,0)"/>
<path d="" fill="#9D49D6" transform="translate(0,0)"/>
<path d="" fill="#A149DA" transform="translate(0,0)"/>
<path d="" fill="#9F4BDB" transform="translate(0,0)"/>
<path d="" fill="#A04BD7" transform="translate(0,0)"/>
<path d="" fill="#9D4CD4" transform="translate(0,0)"/>
<path d="" fill="#9F4CD8" transform="translate(0,0)"/>
<path d="" fill="#A04ADB" transform="translate(0,0)"/>
<path d="" fill="#A54EDD" transform="translate(0,0)"/>
<path d="" fill="#A04BD7" transform="translate(0,0)"/>
<path d="" fill="#9F4CD9" transform="translate(0,0)"/>
<path d="" fill="#A44CDD" transform="translate(0,0)"/>
<path d="" fill="#A250DB" transform="translate(0,0)"/>
<path d="" fill="#9E4BD6" transform="translate(0,0)"/>
<path d="" fill="#A851DE" transform="translate(0,0)"/>
<path d="" fill="#9B4AD3" transform="translate(0,0)"/>
<path d="" fill="#A14ED8" transform="translate(0,0)"/>
<path d="" fill="#A04ED8" transform="translate(0,0)"/>
<path d="" fill="#9F4BD3" transform="translate(0,0)"/>
<path d="" fill="#A151D5" transform="translate(0,0)"/>
<path d="" fill="#9D4FD0" transform="translate(0,0)"/>
<path d="" fill="#9E4DD3" transform="translate(0,0)"/>
<path d="" fill="#9C4DD4" transform="translate(0,0)"/>
<path d="" fill="#9F4ED9" transform="translate(0,0)"/>
<path d="" fill="#9C4FD2" transform="translate(0,0)"/>
<path d="" fill="#9F4CD9" transform="translate(0,0)"/>
<path d="" fill="#9E4CD6" transform="translate(0,0)"/>
<path d="" fill="#A148DD" transform="translate(0,0)"/>
<path d="" fill="#9E4BD5" transform="translate(0,0)"/>
<path d="" fill="#9F4AD9" transform="translate(0,0)"/>
<path d="" fill="#9C4BD2" transform="translate(0,0)"/>
<path d="" fill="#9F4DD6" transform="translate(0,0)"/>
<path d="" fill="#A24DDB" transform="translate(0,0)"/>
<path d="" fill="#9950C8" transform="translate(0,0)"/>
<path d="" fill="#9C51D0" transform="translate(0,0)"/>
<path d="" fill="#A04AD6" transform="translate(0,0)"/>
<path d="" fill="#9E4DD4" transform="translate(0,0)"/>
<path d="" fill="#9D4BD6" transform="translate(0,0)"/>
<path d="" fill="#9E4CD2" transform="translate(0,0)"/>
<path d="" fill="#9E4DD2" transform="translate(0,0)"/>
<path d="" fill="#A24AD5" transform="translate(0,0)"/>
<path d="" fill="#A04FD4" transform="translate(0,0)"/>
<path d="" fill="#A14CD6" transform="translate(0,0)"/>
<path d="" fill="#A14ED5" transform="translate(0,0)"/>
<path d="" fill="#A04DD3" transform="translate(0,0)"/>
<path d="" fill="#9E4FD6" transform="translate(0,0)"/>
<path d="" fill="#A150D8" transform="translate(0,0)"/>
<path d="" fill="#9D4CCD" transform="translate(0,0)"/>
<path d="" fill="#A14AD7" transform="translate(0,0)"/>
<path d="" fill="#9A4BD4" transform="translate(0,0)"/>
<path d="" fill="#A04FD7" transform="translate(0,0)"/>
<path d="" fill="#9D4BD2" transform="translate(0,0)"/>
<path d="" fill="#A04ED4" transform="translate(0,0)"/>
</svg>
